<svg width="19" height="19" viewBox="0 0 19 19" fill="none" xmlns="http://www.w3.org/2000/svg">
<path d="M18 16.3209V9.75048C18.0001 9.29336 17.9056 8.84104 17.7225 8.42123C17.5394 8.00142 17.2714 7.62296 16.935 7.30903L10.6679 1.45898C10.3523 1.16423 9.93438 1 9.50002 1C9.06565 1 8.64775 1.16423 8.33212 1.45898L2.06507 7.30903C1.72866 7.62296 1.46067 8.00142 1.27754 8.42123C1.0944 8.84104 0.999966 9.29336 1.00002 9.75048V16.3209C1.00002 16.7662 1.17912 17.1933 1.49793 17.5082C1.81675 17.8231 2.24915 18 2.70002 18H16.3C16.7509 18 17.1833 17.8231 17.5021 17.5082C17.8209 17.1933 18 16.7662 18 16.3209Z" stroke="#93A096" stroke-width="2" stroke-linecap="round" stroke-linejoin="round"/>
</svg>
