<svg width="26" height="27" viewBox="0 0 26 27" fill="none" xmlns="http://www.w3.org/2000/svg">
<path d="M19.4472 26.5479H6.50663C3.04924 26.5479 0.851323 24.4858 0.653757 21.0407L0.0116696 10.8538C-0.0871131 9.31027 0.443844 7.82853 1.50576 6.70488C2.55533 5.58122 4.03707 4.93914 5.5682 4.93914C5.96333 4.93914 6.34611 4.70453 6.53133 4.33409L7.42038 2.56835C8.1489 1.12365 9.97637 0 11.5693 0H14.3969C15.9898 0 17.8049 1.12365 18.5334 2.556L19.4225 4.35879C19.6077 4.70453 19.9781 4.93914 20.3856 4.93914C21.9168 4.93914 23.3985 5.58122 24.4481 6.70488C25.51 7.84088 26.0409 9.31027 25.9422 10.8538L25.3001 21.0531C25.0778 24.5475 22.9416 26.5479 19.4472 26.5479ZM11.5693 1.85218C10.6555 1.85218 9.49481 2.56835 9.07499 3.39566L8.18594 5.17375C7.66733 6.17392 6.66716 6.79131 5.5682 6.79131C4.53098 6.79131 3.56784 7.21114 2.85167 7.96436C2.14785 8.71758 1.78976 9.7054 1.86385 10.7303L2.50593 20.9296C2.6541 23.4239 4.00002 24.6957 6.50663 24.6957H19.4472C21.9415 24.6957 23.2874 23.4239 23.4479 20.9296L24.09 10.7303C24.1517 9.7054 23.806 8.71758 23.1021 7.96436C22.386 7.21114 21.4228 6.79131 20.3856 6.79131C19.2867 6.79131 18.2865 6.17392 17.7679 5.19844L16.8665 3.39566C16.459 2.5807 15.2983 1.86452 14.3846 1.86452H11.5693V1.85218Z" fill="white"/>
<path d="M14.8295 9.26088H11.1252C10.6189 9.26088 10.1991 8.84106 10.1991 8.33479C10.1991 7.82853 10.6189 7.40871 11.1252 7.40871H14.8295C15.3358 7.40871 15.7556 7.82853 15.7556 8.33479C15.7556 8.84106 15.3358 9.26088 14.8295 9.26088Z" fill="white"/>
<path d="M12.977 21.6087C10.2481 21.6087 8.03784 19.3985 8.03784 16.6696C8.03784 13.9407 10.2481 11.7305 12.977 11.7305C15.7059 11.7305 17.9161 13.9407 17.9161 16.6696C17.9161 19.3985 15.7059 21.6087 12.977 21.6087ZM12.977 13.5826C11.273 13.5826 9.89002 14.9656 9.89002 16.6696C9.89002 18.3736 11.273 19.7566 12.977 19.7566C14.681 19.7566 16.0639 18.3736 16.0639 16.6696C16.0639 14.9656 14.681 13.5826 12.977 13.5826Z" fill="white"/>
</svg>
