<svg width="45" height="36" viewBox="0 0 45 36" fill="none" xmlns="http://www.w3.org/2000/svg">
<path d="M22.6955 14.9621C22.658 14.9143 22.6101 14.8757 22.5554 14.8492C22.5007 14.8226 22.4407 14.8088 22.3798 14.8088C22.319 14.8088 22.2589 14.8226 22.2043 14.8492C22.1496 14.8757 22.1017 14.9143 22.0642 14.9621L16.4527 22.0376C16.4064 22.0964 16.3777 22.1671 16.3699 22.2415C16.362 22.3158 16.3753 22.3909 16.4082 22.4581C16.4412 22.5253 16.4924 22.5819 16.5561 22.6214C16.6198 22.661 16.6933 22.6819 16.7684 22.6817H20.4709V34.7854C20.4709 35.0051 20.6513 35.1849 20.8717 35.1849H23.8779C24.0983 35.1849 24.2787 35.0051 24.2787 34.7854V22.6867H27.9913C28.327 22.6867 28.5123 22.3022 28.3069 22.0426L22.6955 14.9621Z" fill="#BB9D66"/>
<path d="M37.3371 10.3184C35.0491 4.28809 29.2193 0 22.3903 0C15.5613 0 9.73143 4.2831 7.44345 10.3134C3.16222 11.4366 0 15.3353 0 19.9678C0 25.4839 4.47106 29.9517 9.98621 29.9517H11.9894C12.2093 29.9517 12.3891 29.772 12.3891 29.5524V26.5572C12.3891 26.3376 12.2093 26.1579 11.9894 26.1579H9.98621C8.30269 26.1579 6.71908 25.4889 5.54012 24.2759C4.36616 23.0678 3.74171 21.4405 3.79666 19.7532C3.84162 18.4353 4.29122 17.1973 5.1055 16.154C5.93977 15.0907 7.10874 14.3169 8.4076 13.9725L10.3009 13.4783L10.9953 11.6512C11.4249 10.5131 12.0244 9.44977 12.7787 8.48633C13.5235 7.5314 14.4056 6.69197 15.3964 5.99534C17.4496 4.55266 19.8675 3.78889 22.3903 3.78889C24.9131 3.78889 27.3309 4.55266 29.3841 5.99534C30.3783 6.69421 31.2575 7.53286 32.0018 8.48633C32.7562 9.44977 33.3556 10.5181 33.7853 11.6512L34.4746 13.4733L36.363 13.9725C39.0706 14.7013 40.9639 17.1623 40.9639 19.9678C40.9639 21.6202 40.3195 23.1777 39.1505 24.3458C38.5773 24.922 37.8953 25.3788 37.1441 25.6899C36.3929 26.0009 35.5875 26.16 34.7744 26.1579H32.7711C32.5513 26.1579 32.3715 26.3376 32.3715 26.5572V29.5524C32.3715 29.772 32.5513 29.9517 32.7711 29.9517H34.7744C40.2895 29.9517 44.7606 25.4839 44.7606 19.9678C44.7606 15.3403 41.6084 11.4466 37.3371 10.3184Z" fill="#BB9D66"/>
</svg>
