<svg width="13" height="16" viewBox="0 0 13 16" fill="none" xmlns="http://www.w3.org/2000/svg">
<path d="M0 8L1.3 6.66667H11.7L13 8V14.6667L11.7 16H1.3L0 14.6667V8ZM1.3 8V14.6667H11.7V8H1.3ZM10.4 6.66667V4C10.4 2.93913 9.98911 1.92172 9.25772 1.17157C8.52633 0.421427 7.53434 0 6.5 0C5.46566 0 4.47368 0.421427 3.74228 1.17157C3.01089 1.92172 2.6 2.93913 2.6 4V6.66667H3.9V4C3.9 3.29276 4.17393 2.61448 4.66152 2.11438C5.14912 1.61428 5.81044 1.33333 6.5 1.33333C7.18956 1.33333 7.85088 1.61428 8.33848 2.11438C8.82607 2.61448 9.1 3.29276 9.1 4V6.66667H10.4Z" fill="#BB9D66"/>
</svg>
